<svg xmlns:xlink="http://www.w3.org/1999/xlink" xmlns="http://www.w3.org/2000/svg" version="1.1" viewBox="0 0 120 120" height="120px" width="120px">
    <title>核实情况</title>
    <defs>
        <rect height="120" width="120" y="0" x="0" id="path-1"></rect>
        <linearGradient id="linearGradient-3" y2="3.44169138e-13%" x2="50%" y1="100%" x1="49.9999926%">
            <stop offset="0%" stop-opacity="0" stop-color="#FFFFFF"></stop>
            <stop offset="41%" stop-opacity="0.14" stop-color="#FBFBFC"></stop>
            <stop offset="66%" stop-opacity="0.48" stop-color="#F0F1F3"></stop>
            <stop offset="100%" stop-color="#DFE1E6"></stop>
        </linearGradient>
        <linearGradient id="linearGradient-4" y2="102.331214%" x2="50.013488%" y1="12.8670905%" x1="50.013488%">
            <stop offset="0%" stop-color="#E9EBF0"></stop>
            <stop offset="27%" stop-color="#DFE1E6"></stop>
            <stop offset="89%" stop-color="#D1D3D8"></stop>
            <stop offset="100%" stop-color="#C4C6CC"></stop>
        </linearGradient>
        <linearGradient id="linearGradient-5" y2="78.2595119%" x2="92.2696315%" y1="29.9402803%" x1="19.9953432%">
            <stop offset="27%" stop-color="#DFE1E6"></stop>
            <stop offset="89%" stop-color="#D1D3D8"></stop>
            <stop offset="100%" stop-color="#C4C6CC"></stop>
        </linearGradient>
        <linearGradient id="linearGradient-6" y2="69.1306471%" x2="115.072213%" y1="35.4378142%" x1="0.475249969%">
            <stop offset="0%" stop-color="#FFFFFF"></stop>
            <stop offset="16%" stop-opacity="0.88" stop-color="#FFFFFF"></stop>
            <stop offset="51%" stop-opacity="0.57" stop-color="#FFFFFF"></stop>
            <stop offset="100%" stop-opacity="0.1" stop-color="#FFFFFF"></stop>
        </linearGradient>
        <linearGradient id="linearGradient-7" y2="50.0007293%" x2="100%" y1="50.0007293%" x1="0.0166756572%">
            <stop offset="27%" stop-color="#DFE1E6"></stop>
            <stop offset="89%" stop-color="#C4C6CC"></stop>
            <stop offset="100%" stop-color="#B5B7BA"></stop>
        </linearGradient>
        <linearGradient id="linearGradient-8" y2="50.0148489%" x2="100.117529%" y1="50.0148489%" x1="-0.0213905346%">
            <stop offset="27%" stop-color="#DFE1E6"></stop>
            <stop offset="89%" stop-color="#D1D3D8"></stop>
            <stop offset="100%" stop-color="#C4C6CC"></stop>
        </linearGradient>
        <linearGradient id="linearGradient-9" y2="99.9252484%" x2="49.9861143%" y1="0.0791487116%" x1="49.9861143%">
            <stop offset="0%" stop-color="#FDB65B"></stop>
            <stop offset="100%" stop-color="#FD9357"></stop>
        </linearGradient>
    </defs>
    <g fill-rule="evenodd" fill="none" stroke-width="1" stroke="none" id="核实情况">
        <g id="分组-3-copy-2">
            <mask fill="white" id="mask-2">
                <use xlink:href="#path-1"></use>
            </mask>
            <g fill-rule="nonzero" id="Mask"></g>
            <g mask="url(#mask-2)" id="分组-14-copy">
                <g transform="translate(0.000000, 20.000000)">
                    <ellipse ry="26" rx="60" cy="98" cx="60" fill-rule="nonzero" fill="url(#linearGradient-3)" id="椭圆形"></ellipse>
                    <g transform="translate(13.000000, 0.000000)" fill-rule="evenodd" fill="none" stroke-width="1" id="分组-37">
                        <rect height="17.821214" width="19.9590709" y="60.8985898" x="37.2278737" fill-rule="nonzero" fill="url(#linearGradient-4)" id="矩形"></rect>
                        <rect rx="3.94999067" height="61.7079093" width="92.4944372" y="0.323727774" x="0.96019059" fill-rule="nonzero" fill="url(#linearGradient-5)" id="矩形"></rect>
                        <rect rx="1.23067737" height="48.6293072" width="87.2341155" y="3.29123237" x="3.59304348" fill-rule="nonzero" fill="url(#linearGradient-6)" id="矩形"></rect>
                        <polygon points="64.493246 82.0865727 29.9215724 82.0865727 31.7306492 78.0453709 62.6841691 78.0453709" fill-rule="nonzero" fill="#C4C6CC" id="路径"></polygon>
                        <path fill-rule="nonzero" fill="url(#linearGradient-7)" id="形状" d="M47.1078023,43.2554269 C39.9514289,43.2576085 33.4985072,38.9393407 30.7583725,32.3144569 C28.0182378,25.6895732 29.5305901,18.0629182 34.5901403,12.9912005 C39.6496905,7.91948274 47.259904,6.40163357 53.8717396,9.1455055 C60.4835752,11.8893774 64.7947588,18.3545343 64.7947588,25.525935 C64.7828987,35.3106296 56.8719899,43.240563 47.1078023,43.2554269 L47.1078023,43.2554269 Z M47.1078023,9.26400981 C40.5301932,9.24216968 34.5882307,13.1962259 32.0564757,19.2798575 C29.5247206,25.3634892 30.9026148,32.3765723 35.5467594,37.0443933 C40.190904,41.7122143 47.1851442,43.1139475 53.2635648,40.5950627 C59.3419855,38.0761779 63.3054906,32.133578 63.3033555,25.5421214 C63.3122953,16.5645814 56.0664953,9.27459982 47.1078023,9.24782342 L47.1078023,9.26400981 Z"></path>
                        <rect height="2.01790313" width="1" y="46.7678725" x="11.7392734" fill-rule="nonzero" fill="#D1D3D8" id="矩形"></rect>
                        <rect height="2.01790313" width="1" y="46.7678725" x="13.2306849" fill-rule="nonzero" fill="#D1D3D8" id="矩形"></rect>
                        <rect height="2.01790313" width="1" y="46.7678725" x="14.7220965" fill-rule="nonzero" fill="#D1D3D8" id="矩形"></rect>
                        <rect height="2.01790313" width="1" y="46.7678725" x="16.213508" fill-rule="nonzero" fill="#D1D3D8" id="矩形"></rect>
                        <rect height="2.01790313" width="1" y="46.7678725" x="17.6995354" fill-rule="nonzero" fill="#D1D3D8" id="矩形"></rect>
                        <rect height="2.01790313" width="1" y="46.7678725" x="19.190947" fill-rule="nonzero" fill="#D1D3D8" id="矩形"></rect>
                        <rect height="2.01790313" width="1" y="46.7678725" x="20.6823585" fill-rule="nonzero" fill="#D1D3D8" id="矩形"></rect>
                        <rect height="2.01790313" width="1" y="46.7678725" x="22.1737701" fill-rule="nonzero" fill="#D1D3D8" id="矩形"></rect>
                        <rect height="2.01790313" width="1" y="46.7678725" x="23.6651817" fill-rule="nonzero" fill="#D1D3D8" id="矩形"></rect>
                        <rect height="2.01790313" width="1" y="46.7678725" x="25.1512091" fill-rule="nonzero" fill="#D1D3D8" id="矩形"></rect>
                        <rect height="2.01790313" width="1" y="46.7678725" x="26.6426206" fill-rule="nonzero" fill="#D1D3D8" id="矩形"></rect>
                        <rect height="2.01790313" width="1" y="46.7678725" x="28.1340322" fill-rule="nonzero" fill="#D1D3D8" id="矩形"></rect>
                        <rect height="2.01790313" width="1" y="46.7678725" x="29.6254437" fill-rule="nonzero" fill="#D1D3D8" id="矩形"></rect>
                        <rect height="2.01790313" width="1" y="46.7678725" x="31.1168553" fill-rule="nonzero" fill="#D1D3D8" id="矩形"></rect>
                        <rect height="2.01790313" width="1" y="46.7678725" x="32.6082668" fill-rule="nonzero" fill="#D1D3D8" id="矩形"></rect>
                        <rect height="2.01790313" width="1" y="46.7678725" x="34.0942942" fill-rule="nonzero" fill="#D1D3D8" id="矩形"></rect>
                        <rect height="2.01790313" width="1" y="46.7678725" x="35.5857058" fill-rule="nonzero" fill="#D1D3D8" id="矩形"></rect>
                        <rect height="2.01790313" width="1" y="46.7678725" x="37.0771173" fill-rule="nonzero" fill="#D1D3D8" id="矩形"></rect>
                        <rect height="2.01790313" width="1" y="46.7678725" x="38.5685289" fill-rule="nonzero" fill="#D1D3D8" id="矩形"></rect>
                        <rect height="2.01790313" width="1" y="46.7678725" x="40.0599404" fill-rule="nonzero" fill="#D1D3D8" id="矩形"></rect>
                        <rect height="2.01790313" width="1" y="46.7678725" x="41.5459678" fill-rule="nonzero" fill="#D1D3D8" id="矩形"></rect>
                        <rect height="2.01790313" width="1" y="46.7678725" x="43.0373794" fill-rule="nonzero" fill="#D1D3D8" id="矩形"></rect>
                        <rect height="2.01790313" width="1" y="46.7678725" x="44.5287909" fill-rule="nonzero" fill="#D1D3D8" id="矩形"></rect>
                        <rect height="2.01790313" width="1" y="46.7678725" x="46.0202025" fill-rule="nonzero" fill="#D1D3D8" id="矩形"></rect>
                        <rect height="2.01790313" width="1" y="46.7678725" x="47.5116141" fill-rule="nonzero" fill="#D1D3D8" id="矩形"></rect>
                        <rect height="2.01790313" width="1" y="46.7678725" x="48.9976415" fill-rule="nonzero" fill="#D1D3D8" id="矩形"></rect>
                        <rect height="2.01790313" width="1" y="46.7678725" x="50.489053" fill-rule="nonzero" fill="#D1D3D8" id="矩形"></rect>
                        <rect height="2.01790313" width="1" y="46.7678725" x="51.9804646" fill-rule="nonzero" fill="#D1D3D8" id="矩形"></rect>
                        <rect height="2.01790313" width="1" y="46.7678725" x="53.4718761" fill-rule="nonzero" fill="#D1D3D8" id="矩形"></rect>
                        <rect height="2.01790313" width="1" y="46.7678725" x="54.9632877" fill-rule="nonzero" fill="#D1D3D8" id="矩形"></rect>
                        <rect height="2.01790313" width="1" y="46.7678725" x="56.4546992" fill-rule="nonzero" fill="#D1D3D8" id="矩形"></rect>
                        <rect height="2.01790313" width="1" y="46.7678725" x="57.9407266" fill-rule="nonzero" fill="#D1D3D8" id="矩形"></rect>
                        <rect height="2.01790313" width="1" y="46.7678725" x="59.4321382" fill-rule="nonzero" fill="#D1D3D8" id="矩形"></rect>
                        <rect height="2.01790313" width="1" y="46.7678725" x="60.9235497" fill-rule="nonzero" fill="#D1D3D8" id="矩形"></rect>
                        <rect height="2.01790313" width="1" y="46.7678725" x="62.4149613" fill-rule="nonzero" fill="#D1D3D8" id="矩形"></rect>
                        <rect height="2.01790313" width="1" y="46.7678725" x="63.9063728" fill-rule="nonzero" fill="#FFFFFF" id="矩形"></rect>
                        <rect height="2.01790313" width="1" y="46.7678725" x="65.3924002" fill-rule="nonzero" fill="#FFFFFF" id="矩形"></rect>
                        <rect height="2.01790313" width="1" y="46.7678725" x="66.8838118" fill-rule="nonzero" fill="#FFFFFF" id="矩形"></rect>
                        <rect height="2.01790313" width="1" y="46.7678725" x="68.3752233" fill-rule="nonzero" fill="#FFFFFF" id="矩形"></rect>
                        <rect height="2.01790313" width="1" y="46.7678725" x="69.8666349" fill-rule="nonzero" fill="#FFFFFF" id="矩形"></rect>
                        <rect height="2.01790313" width="1" y="46.7678725" x="71.3580465" fill-rule="nonzero" fill="#FFFFFF" id="矩形"></rect>
                        <rect height="2.01790313" width="1" y="46.7678725" x="72.849458" fill-rule="nonzero" fill="#FFFFFF" id="矩形"></rect>
                        <rect height="2.01790313" width="1" y="46.7678725" x="74.3354854" fill-rule="nonzero" fill="#FFFFFF" id="矩形"></rect>
                        <rect height="2.01790313" width="1" y="46.7678725" x="75.826897" fill-rule="nonzero" fill="#FFFFFF" id="矩形"></rect>
                        <rect height="2.01790313" width="1" y="46.7678725" x="77.3183085" fill-rule="nonzero" fill="#FFFFFF" id="矩形"></rect>
                        <rect height="2.01790313" width="1" y="46.7678725" x="78.8097201" fill-rule="nonzero" fill="#FFFFFF" id="矩形"></rect>
                        <rect height="2.01790313" width="1" y="46.7678725" x="80.3011316" fill-rule="nonzero" fill="#FFFFFF" id="矩形"></rect>
                        <rect height="2.01790313" width="1" y="46.7678725" x="81.787159" fill-rule="nonzero" fill="#FFFFFF" id="矩形"></rect>
                        <path fill-rule="nonzero" fill="url(#linearGradient-8)" id="路径" d="M57.5638356,31.4555487 L48.0015724,15.0371551 C47.8509764,14.7773147 47.6031196,14.5884519 47.3130061,14.5124791 C47.0228926,14.4365063 46.714519,14.4797074 46.4563192,14.6324954 C46.2844233,14.7306773 46.1428441,14.8744205 46.0471233,15.047946 L36.619464,31.5904353 C36.3145702,32.1333128 36.5017133,32.8209451 37.0394282,33.1335377 C37.2030203,33.2286346 37.3887202,33.2788789 37.577844,33.2792152 L56.5893032,33.1928878 C56.999546,33.1896849 57.3758709,32.9640483 57.5726358,32.6033022 C57.7694006,32.242556 57.7557301,31.8033066 57.5369148,31.4555487 L57.5638356,31.4555487 Z"></path>
                        <path fill-rule="nonzero" fill="#FFFFFF" id="形状" d="M47.9100417,28.6337216 C47.8761035,29.0450121 47.5330921,29.3614938 47.1212627,29.3614938 C46.7094332,29.3614938 46.3664218,29.0450121 46.3324836,28.6337216 L46.3324836,28.6067443 C46.3078949,28.3087584 46.4526277,28.0222395 46.7068292,27.8656743 C46.9610308,27.7091091 47.2814945,27.7091091 47.5356961,27.8656743 C47.7898976,28.0222395 47.9346304,28.3087584 47.9100417,28.6067443 L47.9100417,28.6337216 Z M47.9100417,25.7363581 C47.9100417,26.1743933 47.555688,26.5294911 47.1185706,26.5294911 C46.6814532,26.5294911 46.3270995,26.1743933 46.3270995,25.7363581 L46.3270995,21.5225015 C46.3025107,21.2245156 46.4472435,20.9379967 46.7014451,20.7814315 C46.9556466,20.6248663 47.2761104,20.6248663 47.5303119,20.7814315 C47.7845135,20.9379967 47.9292463,21.2245156 47.9046575,21.5225015 L47.9046575,25.7309626 L47.9100417,25.7363581 Z"></path>
                        <path fill-rule="nonzero" fill="#FCD9CB" id="路径" d="M89.6103395,48.4566524 C89.6103395,48.4566524 88.6142704,52.2334764 90.8433115,52.578786 L90.8433115,53.7657879 L92.8354497,53.7657879 L92.5823943,51.5320662 L91.8986063,47.7552422 L89.6103395,48.4566524 Z"></path>
                        <path fill-rule="nonzero" fill="#666666" id="路径" d="M92.3078023,46.5196812 C92.3078023,46.5196812 90.3156641,46.2283262 89.6157236,47.6958921 C89.6157236,47.6958921 89.0773079,48.5969344 88.7327219,48.2030656 C88.7327219,48.2030656 88.1943061,49.2228081 89.8095533,49.3415083 C90.1268674,49.3705014 90.4431231,49.2758119 90.6925551,49.0771306 C90.6925551,49.0771306 91.3978797,48.6077253 91.3978797,49.6166769 C91.3978797,49.6166769 91.4840262,50.4098099 90.8971531,50.6957695 C90.8971531,50.6957695 90.5148779,51.4619252 92.1893508,52.1363581 C92.1893508,52.1363581 94.4183919,52.2280809 94.6229899,48.8990803 C94.5960691,48.8990803 94.6337582,46.902759 92.3078023,46.5196812 Z"></path>
                        <path fill-rule="nonzero" fill="#333333" id="路径" d="M86.7028946,85.8364194 C86.7028946,85.8364194 84.387707,85.7177192 86.2075521,86.83458 C86.2075521,86.83458 88.8996307,88.5395463 89.9764622,87.4820356 C90.2068141,87.0485385 90.1603729,86.5196896 89.8580107,86.1331698 C88.8170611,85.94146 87.7612623,85.8421582 86.7028946,85.8364194 Z"></path>
                        <path fill-rule="nonzero" fill="#333333" id="路径" d="M92.0708993,85.4965052 C92.0708993,85.4965052 89.7826325,85.1511956 91.478642,86.4407112 C91.478642,86.4407112 93.9930435,88.4046597 95.1506373,87.4604537 C95.4190524,87.0471435 95.4190524,86.5141072 95.1506373,86.1007971 C94.1437547,85.8091428 93.1131929,85.6069307 92.0708993,85.4965052 Z"></path>
                        <path fill-rule="nonzero" fill="#666666" id="路径" d="M89.389589,65.598038 C89.389589,65.598038 87.8497201,66.472103 88.086623,69.1320662 L88.086623,86.1331698 L89.868779,86.1331698 C89.868779,86.1331698 90.1379869,77.0957695 91.6455509,71.3280196 C91.6455509,71.3280196 92.9215962,76.2594727 92.8623705,86.1331698 C93.5891026,86.4653905 94.4239052,86.4653905 95.1506373,86.1331698 C95.1506373,86.1331698 95.7967362,72.3801349 95.0321858,66.6771306 L89.389589,65.598038 Z"></path>
                        <polygon points="83.1601191 53.4852238 86.0891007 58.9832005 89.6695652 56.5714286 86.9397975 51.5482526" fill-rule="nonzero" fill="#FEFEFD" id="路径"></polygon>
                        <path fill-rule="nonzero" fill="#FCD9CB" id="路径" d="M87.2628469,57.1379522 L86.9397975,57.3321888 L86.4713758,59.5982833 C86.4713758,59.5982833 85.825277,60.7637032 85.3299345,57.1379522 C85.3299345,57.1379522 85.5937582,55.3034948 85.0661108,55.2765175 C85.0661108,55.2765175 84.6838356,55.2765175 84.8022871,56.3933783 L83.978511,54.8340895 C83.978511,54.8340895 83.2731864,55.3034948 84.387707,58.6109135 C84.387707,58.6109135 85.1791781,62.5765788 86.821346,62.6359289 C88.463514,62.695279 88.4366203,57.6127529 88.4366203,57.6127529 L87.2628469,57.1379522 Z"></path>
                        <path fill-rule="nonzero" fill="#FCD9CB" id="路径" d="M87.8497201,53.533783 C87.5321415,53.5354656 87.2597003,53.7610964 87.198237,54.0733292 C87.1433507,54.2779266 87.2530342,54.4907386 87.4512924,54.5643164 L87.8497201,53.533783 Z"></path>
                        <path fill-rule="nonzero" fill="#858386" id="路径" d="M88.5819655,52.4708768 C88.4365932,52.4115267 88.361215,52.3791539 88.2643002,52.5248314 L87.1874687,54.839485 L87.1336272,55.2387492 L87.4566766,55.0121398 L88.7165694,52.7784181 C88.7426669,52.7200415 88.7429282,52.653331 88.717289,52.5947508 C88.6916498,52.5361706 88.6424984,52.4911778 88.5819655,52.4708768 Z"></path>
                        <path fill-rule="nonzero" fill="#FCD9CB" id="路径" d="M88.3019893,53.5175966 C88.1543274,53.8162899 87.8920269,54.0421474 87.5751281,54.1434703 C87.5751281,54.1434703 87.2359261,54.5643164 88.0058606,54.5049663 L89.0019297,54.6236665 C89.0019297,54.6236665 89.3949732,53.7549969 88.3019893,53.5175966 Z"></path>
                        <path fill-rule="nonzero" fill="url(#linearGradient-9)" id="路径" d="M90.1379869,53.5823421 C90.1379869,53.5823421 87.4459083,53.2909871 86.7028946,57.5156346 L88.4204407,58.0983446 C88.3910115,60.2037799 88.2110788,62.3043964 87.882025,64.3840589 C87.882025,64.3840589 87.2628469,66.3264255 88.4204407,66.6771306 C88.4204407,66.6771306 92.4854795,67.7562232 95.005265,66.6771306 C95.005265,66.6771306 95.8236569,66.3264255 95.5921382,64.5189454 C95.3746708,62.1852511 95.3890994,59.8356792 95.6352114,57.5048437 C95.6352114,57.5048437 96.4697558,54.186634 93.6538416,53.522992 C92.4987276,53.7872977 91.3013289,53.8075107 90.1379869,53.5823421 L90.1379869,53.5823421 Z"></path>
                    </g>
                </g>
            </g>
        </g>
    </g>
</svg>